<svg xmlns="http://www.w3.org/2000/svg" xmlns:xlink="http://www.w3.org/1999/xlink" version="1.1" width="96" height="96" viewBox="4.8 -9.6 96.0 129.6">
<path d="M37 58c-0.536 0-1.072-0.216-1.464-0.64l-13-14c-0.712-0.768-0.712-1.956 0-2.724l13-14c0.752-0.808 2.016-0.856 2.828-0.104 0.808 0.752 0.856 2.016 0.104 2.828l-11.736 12.64 11.736 12.64c0.752 0.812 0.704 2.080-0.104 2.828-0.388 0.356-0.876 0.532-1.364 0.532z" fill="#000000"/>
	<path d="M64.168 64h-16.168c-1.104 0-2-0.9-2-2s0.896-2 2-2h16.168c4.32 0 7.832-3.512 7.832-7.832 0-4.656-3.512-8.168-7.832-8.168h-40.168c-1.104 0-2-0.896-2-2s0.896-2 2-2h40.168c6.524 0 11.832 5.308 11.832 11.832 0 6.86-5.308 12.168-11.832 12.168z" fill="#000000"/>
	<path d="M48 96c-26.468 0-48-21.532-48-48s21.532-48 48-48 48 21.532 48 48-21.532 48-48 48zM48 4c-24.26 0-44 19.74-44 44 0 24.256 19.74 44 44 44 24.256 0 44-19.744 44-44 0-24.26-19.744-44-44-44z" fill="#000000"/>
</svg>
